<?xml version="1.0" encoding="utf-8"?>
<!DOCTYPE svg PUBLIC "-//W3C//DTD SVG 1.1//EN" "http://www.w3.org/Graphics/SVG/1.1/DTD/svg11.dtd">
<svg version="1.1" id="Ebene_1" xmlns="http://www.w3.org/2000/svg" xmlns:xlink="http://www.w3.org/1999/xlink" x="0px" y="0px"
	 width="405.968px" height="122.326px" viewBox="0 0 405.968 122.326"
	 xml:space="preserve">
<path d="M35.208,52.901h14.858L35.208,67.792V52.901z M26.198,35.133h16.491L30.921,46.907H14.437L26.198,35.133z M51.177,35.133
	h16.68L56.093,46.907H39.417L51.177,35.133z M76.312,35.133h16.251L80.795,46.907H64.552L76.312,35.133z M71.85,14.463v14.683
	H57.167L71.85,14.463z M77.823,0.001L48.738,29.128h-24.96L0,52.909l29.278,0.002v29.206l29.218-29.214h24.741L107,29.128H77.824
	L77.823,0.001L77.823,0.001z"/>
<g>
	<defs>
		<rect id="SVGID_1_" width="405.968" height="122.326"/>
	</defs>
	<clipPath id="SVGID_2_">
		<use xlink:href="#SVGID_1_"  overflow="visible"/>
	</clipPath>
	<path clip-path="url(#SVGID_2_)" d="M64.143,85.356h-1.981v-12.16h1.981c2.976,0,5.852,2.214,5.852,6.08
		C69.995,83.144,67.119,85.356,64.143,85.356 M63.457,70.396h-4.858v17.759h4.858c5.443,0,10.253-1.832,10.253-8.879
		C73.71,72.231,68.9,70.396,63.457,70.396"/>
	<polygon clip-path="url(#SVGID_2_)" points="77.481,70.396 81.044,70.396 81.044,85.356 87.938,85.356 87.938,88.155 
		77.481,88.155 	"/>
	<path clip-path="url(#SVGID_2_)" d="M95.865,77.979h-1.172v-4.783h1.172c1.778,0,3.764,0.18,3.764,2.316
		C99.629,77.725,97.618,77.979,95.865,77.979 M101.562,81.209c-0.355-0.786-0.916-1.755-1.884-1.831v-0.051
		c2.264-0.304,3.666-2.035,3.666-4.121c0-4.936-4.557-4.81-8.374-4.81h-3.841v17.759h3.564v-7.376h1.144
		c1.499,0,1.957,0.507,2.468,1.829l2.137,5.547h3.968L101.562,81.209z"/>
	<path clip-path="url(#SVGID_2_)" d="M137.162,74.991h-2.977V73.36c0-1.02,0.356-2.01,1.499-2.01c0.741,0,1.167,0.275,1.478,0.458
		l0.28-2.827c-0.659-0.152-1.628-0.283-2.496-0.283c-2.7,0-4.174,1.835-4.174,4.461v1.832h-2.522v2.494h2.522v10.62h3.413v-10.62
		h2.977V74.991"/>
	<path clip-path="url(#SVGID_2_)" d="M147.601,81.405c0,1.68-0.538,4.355-3.007,4.355c-2.189,0-2.217-2.166-2.217-3.771v-6.998
		h-3.405v8.274c0,2.953,1.345,5.144,4.451,5.144c1.788,0,3.261-0.815,4.305-2.084h0.053v1.78h3.231V74.991h-3.411V81.405"/>
	<path clip-path="url(#SVGID_2_)" d="M214.63,85.404c-0.364,0.231-0.944,0.356-1.556,0.356c-1.296,0-1.604-1.046-1.604-2.166v-6.109
		h3.028v-2.494h-3.028v-3.719l-3.415,1.095v2.624h-2.518v2.494h2.518v6.674c0,2.594,1.48,4.25,4.152,4.25
		c1.024,0,1.809-0.103,2.523-0.304L214.63,85.404"/>
	<path clip-path="url(#SVGID_2_)" d="M190.957,86.325v1.78h3.235V74.991h-3.416v6.414c0,1.68-0.535,4.355-3.002,4.355
		c-2.184,0-2.215-2.166-2.215-3.771v-6.998h-3.409v8.274c0,2.952,1.351,5.144,4.455,5.144c1.78,0,3.258-0.815,4.304-2.084H190.957"
		/>
	<path clip-path="url(#SVGID_2_)" d="M205.01,74.991h-2.984V73.36c0-1.02,0.359-2.01,1.502-2.01c0.745,0,1.171,0.275,1.481,0.458
		l0.279-2.827c-0.669-0.152-1.635-0.283-2.5-0.283c-2.693,0-4.172,1.835-4.172,4.461v1.832H196.1v2.494h2.517v10.62h3.409v-10.62
		h2.984V74.991"/>
	<path clip-path="url(#SVGID_2_)" d="M170.848,56.911h0.046v1.78h3.232V45.578h-3.412v6.423c0,1.676-0.533,4.347-3.001,4.347
		c-2.188,0-2.217-2.165-2.217-3.766v-7.004h-3.412v8.277c0,2.952,1.352,5.14,4.456,5.14
		C168.324,58.995,169.801,58.182,170.848,56.911"/>
	<polygon clip-path="url(#SVGID_2_)" points="268.526,55.894 259.916,55.894 268.345,43.82 268.345,40.918 256.535,40.918 
		256.535,43.72 264.556,43.72 256.196,55.789 256.196,58.691 268.526,58.691 	"/>
	<path clip-path="url(#SVGID_2_)" d="M230.156,47.767c1.914,0,2.673,1.424,2.775,3.082h-5.806
		C227.275,49.095,228.249,47.767,230.156,47.767 M227.126,53.192h9.058c0-4.586-1.369-7.922-6.232-7.922
		c-4.072,0-6.092,3.131-6.092,6.928c0,4.304,2.524,6.797,6.859,6.797c1.835,0,3.256-0.354,4.499-1.041v-2.779
		c-1.267,0.719-2.695,1.327-4.355,1.327C228.754,56.502,227.275,55.304,227.126,53.192"/>
	<path clip-path="url(#SVGID_2_)" d="M212.865,52.274c0-1.679,0.54-4.352,3.002-4.352c2.193,0,2.216,2.164,2.216,3.771v6.998h3.42
		V50.42c0-2.958-1.352-5.15-4.462-5.15c-1.775,0-3.255,0.818-4.123,2.088h-0.053v-7.765h-3.411v19.098h3.411V52.274"/>
	<path clip-path="url(#SVGID_2_)" d="M287.646,52.274c0-1.679,0.534-4.352,3.005-4.352c2.189,0,2.216,2.164,2.216,3.771v6.998h3.411
		V50.42c0-2.958-1.348-5.15-4.462-5.15c-1.773,0-3.229,0.587-4.298,2.088h-0.049v-1.78h-3.231v13.113h3.408V52.274"/>
	<path clip-path="url(#SVGID_2_)" d="M322.71,58.995c1.78,0,3.253-0.812,4.302-2.084h0.048v1.78h3.232V45.578h-3.407v6.423
		c0,1.676-0.536,4.348-3.007,4.348c-2.187,0-2.214-2.165-2.214-3.767v-7.004h-3.416v8.277
		C318.248,56.807,319.601,58.995,322.71,58.995"/>
	<path clip-path="url(#SVGID_2_)" d="M391.58,83.293c0-1.888,0-5.351,2.779-5.351c0.606,0,1.217,0.102,1.524,0.287v-3.447
		c-0.356-0.093-0.71-0.093-1.036-0.093c-2.039,0-3.443,2.06-3.601,3.276h-0.045v-2.975h-3.032v13.115h3.41V83.293"/>
	<path clip-path="url(#SVGID_2_)" d="M204.085,58.995c1.398,0,2.42-0.125,3.41-0.432l-0.151-2.822
		c-0.585,0.254-1.654,0.608-2.623,0.608c-2.39,0-3.539-1.858-3.539-4.277c0-2.471,1.353-4.15,3.461-4.15
		c1.046,0,1.709,0.203,2.318,0.479l0.303-2.694c-0.938-0.282-1.934-0.437-3.309-0.437c-4.099,0-6.334,3.006-6.334,6.802
		C197.622,56.067,199.787,58.995,204.085,58.995"/>
	<path clip-path="url(#SVGID_2_)" d="M312.271,53.88c0-1.879,0-5.346,2.77-5.346c0.611,0,1.222,0.098,1.528,0.283v-3.445
		c-0.354-0.101-0.709-0.101-1.04-0.101c-2.039,0-3.443,2.063-3.593,3.287h-0.051v-2.98h-3.035v13.113h3.421V53.88"/>
	<path clip-path="url(#SVGID_2_)" d="M300.298,54.745c0,2.599,1.478,4.25,4.15,4.25c1.018,0,1.808-0.098,2.523-0.304l-0.106-2.696
		c-0.354,0.228-0.938,0.354-1.546,0.354c-1.304,0-1.606-1.044-1.606-2.165v-6.111h3.029v-2.495h-3.029v-3.716l-3.415,1.095v2.621
		h-2.515v2.495h2.515V54.745"/>
	<rect x="146.148" y="69.646" clip-path="url(#SVGID_2_)" width="2.954" height="2.948"/>
	<path clip-path="url(#SVGID_2_)" d="M136.216,55.894h-1.984V43.72h1.984c2.979,0,5.854,2.215,5.854,6.085
		C142.07,53.676,139.195,55.894,136.216,55.894 M135.528,40.918h-4.865v17.773h4.865c5.45,0,10.26-1.831,10.26-8.886
		C145.788,42.753,140.978,40.918,135.528,40.918"/>
	<rect x="140.904" y="69.646" clip-path="url(#SVGID_2_)" width="2.955" height="2.948"/>
	<path clip-path="url(#SVGID_2_)" d="M178.457,54.745c0,2.599,1.477,4.25,4.146,4.25c1.017,0,1.81-0.098,2.526-0.304l-0.108-2.696
		c-0.351,0.228-0.937,0.354-1.548,0.354c-1.296,0-1.605-1.044-1.605-2.165v-6.111h3.028v-2.495h-3.028v-3.716l-3.411,1.095v2.621
		h-2.52v2.495h2.52V54.745"/>
	<path clip-path="url(#SVGID_2_)" d="M192.661,54.899c0,1.274-1.381,1.603-2.243,1.603c-1.171,0-2.288-0.329-3.356-0.867
		l-0.205,2.803c1.245,0.331,2.57,0.557,3.869,0.557c2.774,0,5.496-1.219,5.496-4.274c0-4.736-5.931-3.415-5.931-5.504
		c0-1.117,1.097-1.451,2.011-1.451c1.25,0,2.01,0.205,3.055,0.561l0.226-2.571c-1.065-0.229-2.111-0.486-3.713-0.486
		c-2.671,0-5.139,1.251-5.139,4.078C186.731,54.082,192.661,52.326,192.661,54.899"/>
	<polygon clip-path="url(#SVGID_2_)" points="170.565,70.328 170.565,88.105 181.034,88.105 181.034,85.303 174.134,85.303 
		174.134,70.328 	"/>
	<path clip-path="url(#SVGID_2_)" d="M157.224,77.966h-0.049v-2.975h-3.031v13.115h3.416v-4.813c0-1.889,0-5.35,2.77-5.35
		c0.617,0,1.227,0.101,1.528,0.286v-3.447c-0.356-0.093-0.712-0.093-1.04-0.093C158.777,74.689,157.375,76.749,157.224,77.966"/>
	<path clip-path="url(#SVGID_2_)" d="M153.885,47.767c1.907,0,2.672,1.424,2.776,3.082h-5.806
		C151.011,49.095,151.976,47.767,153.885,47.767 M150.855,53.192h9.067c0-4.586-1.375-7.922-6.242-7.922
		c-4.072,0-6.085,3.131-6.085,6.928c0,4.304,2.516,6.797,6.851,6.797c1.831,0,3.26-0.354,4.511-1.041v-2.779
		c-1.278,0.719-2.702,1.327-4.357,1.327C152.483,56.502,151.011,55.304,150.855,53.192"/>
	<rect x="215.648" y="79.854" clip-path="url(#SVGID_2_)" width="6.689" height="2.803"/>
	<path clip-path="url(#SVGID_2_)" d="M366.022,84.745c-0.541,0.711-1.355,1.169-2.396,1.169c-1.223,0-2.16-0.482-2.16-1.604
		c0-2.012,2.265-2.264,3.79-2.264h1.477C366.733,83.063,366.577,84.004,366.022,84.745 M369.889,85.176
		c-0.027-0.97-0.05-1.962-0.05-3.283V80.21c0-3.869-1.66-5.521-5.649-5.521c-1.459,0-3.236,0.379-4.561,0.992l0.098,2.924
		c1.147-0.868,2.601-1.428,4.053-1.428c2.013,0,2.954,0.717,2.954,2.826h-1.885c-1.428,0-3.111,0.134-4.404,0.77
		c-1.3,0.631-2.239,1.778-2.239,3.742c0,2.493,2.268,3.894,4.59,3.894c1.549,0,3.252-0.814,4.033-2.265h0.056
		c0.021,0.403,0.021,1.271,0.154,1.962h3.011C369.961,87.086,369.913,86.17,369.889,85.176"/>
	<path clip-path="url(#SVGID_2_)" d="M351.225,88.105h3.418v-10.62h2.979v-2.494h-2.979V73.36c0-1.021,0.354-2.01,1.498-2.01
		c0.742,0,1.172,0.276,1.48,0.458l0.275-2.827c-0.66-0.152-1.63-0.283-2.495-0.283c-2.698,0-4.177,1.835-4.177,4.461v1.832h-2.518
		v2.494h2.518V88.105"/>
	<path clip-path="url(#SVGID_2_)" d="M342.974,74.688c-1.603,0-3.307,0.733-4.098,2.311c-0.74-1.625-2.036-2.311-3.865-2.311
		c-1.276,0-2.833,0.528-3.895,2.133h-0.048v-1.83h-3.187v13.114h3.405v-6.368c0-1.708,0.281-4.403,2.544-4.403
		c1.97,0,1.97,1.728,1.97,2.951v7.82h3.405v-6.368c0-1.708,0.288-4.403,2.549-4.403c1.958,0,1.958,1.728,1.958,2.951v7.82h3.415
		v-8.276C347.128,76.901,346.209,74.688,342.974,74.688"/>
	<path clip-path="url(#SVGID_2_)" d="M381.499,81.104v7.001h3.416v-8.276c0-2.955-1.351-5.141-4.46-5.141
		c-1.778,0-3.255,0.812-4.121,2.083h-0.051v-7.769h-3.413v19.103h3.413v-6.421c0-1.682,0.535-4.352,3.005-4.352
		C381.478,77.333,381.499,79.499,381.499,81.104"/>
	<path clip-path="url(#SVGID_2_)" d="M349.158,58.691h3.41V50.42c0-2.933-0.916-5.15-4.147-5.15c-1.602,0-3.309,0.742-4.1,2.321
		c-0.732-1.628-2.041-2.321-3.866-2.321c-1.278,0-2.829,0.539-3.9,2.145h-0.046v-1.837h-3.186v13.113h3.409v-6.365
		c0-1.707,0.286-4.404,2.551-4.404c1.962,0,1.962,1.731,1.962,2.954v7.815h3.407v-6.365c0-1.707,0.285-4.404,2.548-4.404
		c1.958,0,1.958,1.731,1.958,2.954V58.691"/>
	<path clip-path="url(#SVGID_2_)" d="M405.968,88.105l-0.104-2.701c-0.357,0.231-0.938,0.355-1.553,0.355
		c-1.297,0-1.603-1.046-1.603-2.165v-6.109h3.031v-2.494h-3.031v-3.719l-3.41,1.095v2.624h-2.521v2.494h2.521v6.674
		c0,2.593,1.477,4.25,4.146,4.25C404.47,88.409,405.254,88.307,405.968,88.105"/>
	<path clip-path="url(#SVGID_2_)" d="M267.464,85.761c-2.243,0-2.886-2.445-2.886-4.252c0-1.759,0.619-4.175,2.835-4.175
		c2.185,0,3.051,2.341,3.051,4.175C270.464,83.368,269.721,85.761,267.464,85.761 M270.481,69.004v7.511h-0.046
		c-1.016-1.247-2.217-1.825-3.92-1.825c-4.023,0-5.497,3.205-5.497,6.819c0,3.593,1.474,6.9,5.497,6.9
		c1.606,0,3.006-0.507,4.023-1.783h0.05v1.48h3.315V69.004H270.481z"/>
	<path clip-path="url(#SVGID_2_)" d="M240.218,86.325v1.78h3.231V74.991h-3.413v6.414c0,1.68-0.534,4.355-2.998,4.355
		c-2.192,0-2.219-2.166-2.219-3.771v-6.998h-3.41v8.274c0,2.952,1.348,5.144,4.451,5.144c1.784,0,3.256-0.815,4.306-2.084H240.218"
		/>
	<path clip-path="url(#SVGID_2_)" d="M241.282,49.218c0-1.117,1.101-1.451,2.013-1.451c1.246,0,2.009,0.205,3.05,0.56l0.235-2.571
		c-1.069-0.228-2.122-0.485-3.713-0.485c-2.676,0-5.148,1.251-5.148,4.078c0,4.732,5.931,2.977,5.931,5.551
		c0,1.273-1.377,1.603-2.235,1.603c-1.176,0-2.297-0.33-3.368-0.867l-0.205,2.803c1.251,0.331,2.573,0.556,3.875,0.556
		c2.776,0,5.498-1.218,5.498-4.273C247.214,49.986,241.282,51.307,241.282,49.218"/>
	<path clip-path="url(#SVGID_2_)" d="M250.048,81.685c0-1.682,0.531-4.352,3.003-4.352c2.193,0,2.214,2.165,2.214,3.771v7.001h3.413
		v-8.277c0-2.955-1.353-5.14-4.459-5.14c-1.785,0-3.236,0.578-4.305,2.083h-0.049v-1.78h-3.229v13.114h3.411V81.685"/>
	<path clip-path="url(#SVGID_2_)" d="M321.461,86.325h0.055v1.78h3.23V74.991h-3.409v6.414c0,1.68-0.536,4.355-3.006,4.355
		c-2.189,0-2.213-2.166-2.213-3.771v-6.998h-3.416v8.274c0,2.952,1.353,5.144,4.455,5.144
		C318.945,88.409,320.413,87.594,321.461,86.325"/>
	<path clip-path="url(#SVGID_2_)" d="M306.292,84.745c-0.537,0.711-1.351,1.169-2.393,1.169c-1.227,0-2.169-0.482-2.169-1.604
		c0-2.012,2.27-2.264,3.797-2.264h1.472C306.999,83.063,306.846,84.004,306.292,84.745 M310.158,85.176
		c-0.024-0.97-0.055-1.962-0.055-3.283V80.21c0-3.869-1.65-5.521-5.65-5.521c-1.448,0-3.233,0.379-4.554,0.992L300,78.605
		c1.151-0.868,2.596-1.428,4.051-1.428c2.006,0,2.948,0.717,2.948,2.826h-1.882c-1.424,0-3.105,0.134-4.409,0.77
		c-1.291,0.631-2.238,1.778-2.238,3.742c0,2.493,2.27,3.894,4.582,3.894c1.548,0,3.26-0.814,4.049-2.265h0.051
		c0.025,0.403,0.025,1.271,0.149,1.962h3.012C310.235,87.086,310.183,86.17,310.158,85.176"/>
	<path clip-path="url(#SVGID_2_)" d="M288.825,77.919h-1.175v-4.787h1.175c1.782,0,3.77,0.178,3.77,2.318
		C292.595,77.664,290.573,77.919,288.825,77.919 M294.525,81.153c-0.363-0.789-0.919-1.757-1.889-1.834v-0.051
		c2.272-0.306,3.665-2.037,3.665-4.128c0-4.937-4.549-4.813-8.368-4.813h-3.847v17.777h3.563v-7.385h1.143
		c1.504,0,1.964,0.509,2.476,1.831l2.134,5.554h3.974L294.525,81.153z"/>
	<path clip-path="url(#SVGID_2_)" d="M275.963,47.767c1.907,0,2.669,1.424,2.77,3.082h-5.804
		C273.082,49.095,274.05,47.767,275.963,47.767 M272.929,53.192h9.064c0-4.586-1.372-7.922-6.238-7.922
		c-4.073,0-6.089,3.131-6.089,6.928c0,4.304,2.526,6.797,6.857,6.797c1.829,0,3.252-0.354,4.507-1.041v-2.779
		c-1.282,0.719-2.704,1.327-4.356,1.327C274.561,56.502,273.082,55.304,272.929,53.192"/>
	<path clip-path="url(#SVGID_2_)" d="M141.757,109.769h-3.852v-1.427h5.494v8.253c-1.689,0.738-3.329,1.023-5.161,1.023
		c-5.232,0-8.372-3.449-8.372-8.587c0-5.041,3.235-8.583,8.372-8.583c1.26,0,3.329,0.213,4.447,0.784l-0.19,1.521
		c-1.284-0.714-2.806-0.881-4.257-0.881c-4.305,0-6.731,3.043-6.731,7.158c0,4.187,2.355,7.159,6.731,7.159
		c1.023,0,2.735-0.119,3.519-0.594V109.769"/>
	<path clip-path="url(#SVGID_2_)" d="M154.79,110.411c0-2.115-0.857-4.21-3.091-4.21c-2.213,0-3.568,2.214-3.568,4.21H154.79
		 M155.527,116.95c-1.047,0.431-2.402,0.668-3.52,0.668c-4.02,0-5.517-2.711-5.517-6.351c0-3.71,2.045-6.351,5.113-6.351
		c3.424,0,4.827,2.761,4.827,6.019v0.759h-8.299c0,2.57,1.379,4.64,3.995,4.64c1.094,0,2.687-0.453,3.401-0.905V116.95z"/>
	<path clip-path="url(#SVGID_2_)" d="M159.284,107.914c0-1.332,0-1.831-0.095-2.71h1.499v2.33h0.047
		c0.546-1.355,1.57-2.617,3.115-2.617c0.358,0,0.785,0.071,1.046,0.144v1.569c-0.309-0.094-0.713-0.143-1.093-0.143
		c-2.378,0-3.02,2.665-3.02,4.851v5.995h-1.499V107.914"/>
	<path clip-path="url(#SVGID_2_)" d="M181.853,117.333v-8.063c0-1.712-0.642-3.068-2.568-3.068c-1.641,0-3.259,1.405-3.259,4.424
		v6.708h-1.498v-8.063c0-1.712-0.641-3.068-2.568-3.068c-1.641,0-3.258,1.405-3.258,4.424v6.708h-1.499v-9.275
		c0-0.929,0-1.879-0.094-2.854h1.45v2.045l0.048,0.024c0.476-0.833,1.188-2.356,3.782-2.356c1.069,0,2.829,0.453,3.211,2.57h0.047
		c0.546-1.428,1.973-2.57,3.876-2.57c2.45,0,3.828,1.713,3.828,4.067v8.349H181.853"/>
	<path clip-path="url(#SVGID_2_)" d="M193.838,111.221h-0.427c-2.592,0-5.683,0.261-5.683,2.925c0,1.594,1.141,2.188,2.52,2.188
		c3.521,0,3.59-3.067,3.59-4.377V111.221 M193.982,115.382h-0.048c-0.666,1.45-2.354,2.236-3.852,2.236
		c-3.449,0-3.995-2.332-3.995-3.424c0-4.067,4.329-4.258,7.466-4.258h0.285v-0.617c0-2.07-0.736-3.118-2.757-3.118
		c-1.262,0-2.451,0.286-3.567,0.999v-1.449c0.927-0.452,2.497-0.834,3.567-0.834c2.997,0,4.256,1.356,4.256,4.52v5.352
		c0,0.976,0,1.712,0.12,2.545h-1.475V115.382z"/>
	<path clip-path="url(#SVGID_2_)" d="M198.906,108.058c0-0.93,0-1.88-0.096-2.854h1.452v2.163h0.047
		c0.498-1.093,1.402-2.45,3.924-2.45c2.997,0,4.138,1.999,4.138,4.662v7.755h-1.496v-7.374c0-2.282-0.813-3.758-2.881-3.758
		c-2.734,0-3.589,2.403-3.589,4.423v6.709h-1.499V108.058"/>
	<path clip-path="url(#SVGID_2_)" d="M224.78,102.301l-3.616,9.157h7.207L224.78,102.301z M223.97,100.732h1.854l6.59,16.601h-1.712
		l-1.782-4.449h-8.373l-1.784,4.449h-1.592L223.97,100.732z"/>
	<path clip-path="url(#SVGID_2_)" d="M241.997,110.411c0-2.115-0.855-4.21-3.09-4.21c-2.211,0-3.567,2.214-3.567,4.21H241.997
		 M242.736,116.95c-1.049,0.431-2.404,0.668-3.521,0.668c-4.02,0-5.516-2.711-5.516-6.351c0-3.71,2.045-6.351,5.11-6.351
		c3.425,0,4.828,2.761,4.828,6.019v0.759h-8.298c0,2.57,1.376,4.64,3.995,4.64c1.092,0,2.688-0.453,3.401-0.905V116.95z"/>
	<path clip-path="url(#SVGID_2_)" d="M246.493,107.914c0-1.332,0-1.831-0.094-2.71h1.497v2.33h0.049
		c0.545-1.355,1.569-2.617,3.111-2.617c0.358,0,0.787,0.071,1.049,0.144v1.569c-0.309-0.094-0.715-0.143-1.094-0.143
		c-2.38,0-3.02,2.665-3.02,4.851v5.995h-1.499V107.914"/>
	<path clip-path="url(#SVGID_2_)" d="M258.715,116.334c2.615,0,4.021-2.26,4.021-5.065c0-2.807-1.405-5.067-4.021-5.067
		c-2.613,0-4.02,2.261-4.02,5.067C254.695,114.074,256.102,116.334,258.715,116.334 M258.715,104.917
		c3.925,0,5.659,3.045,5.659,6.352c0,3.305-1.734,6.35-5.659,6.35c-3.923,0-5.657-3.045-5.657-6.35
		C253.058,107.962,254.792,104.917,258.715,104.917"/>
	<path clip-path="url(#SVGID_2_)" d="M266.279,115.573c0.903,0.45,1.997,0.761,3.163,0.761c1.426,0,2.688-0.784,2.688-2.165
		c0-2.878-5.828-2.426-5.828-5.945c0-2.402,1.95-3.307,3.948-3.307c0.64,0,1.927,0.144,2.996,0.549l-0.144,1.307
		c-0.783-0.356-1.854-0.571-2.687-0.571c-1.546,0-2.616,0.478-2.616,2.022c0,2.259,5.968,1.975,5.968,5.945
		c0,2.568-2.399,3.449-4.229,3.449c-1.167,0-2.332-0.143-3.403-0.572L266.279,115.573"/>
	<path clip-path="url(#SVGID_2_)" d="M281.404,106.201c-2.662,0-3.589,2.855-3.589,5.065c0,2.213,0.927,5.067,3.589,5.067
		c2.854,0,3.593-2.712,3.593-5.067C284.997,108.912,284.259,106.201,281.404,106.201 M276.314,105.204h1.501l-0.099,2.21h0.049
		c0.381-0.664,1.309-2.497,3.876-2.497c3.568,0,4.994,2.665,4.994,6.35c0,3.594-1.665,6.352-4.994,6.352
		c-1.901,0-3.043-0.786-3.781-2.355h-0.045v7.063h-1.501V105.204z"/>
	<path clip-path="url(#SVGID_2_)" d="M296.507,111.221h-0.43c-2.593,0-5.684,0.261-5.684,2.925c0,1.594,1.144,2.188,2.521,2.188
		c3.521,0,3.593-3.067,3.593-4.377V111.221 M296.648,115.382h-0.048c-0.666,1.45-2.354,2.236-3.854,2.236
		c-3.449,0-3.996-2.332-3.996-3.424c0-4.067,4.331-4.258,7.469-4.258h0.287v-0.617c0-2.07-0.738-3.118-2.759-3.118
		c-1.263,0-2.45,0.286-3.57,0.999v-1.449c0.928-0.452,2.498-0.834,3.57-0.834c2.994,0,4.254,1.356,4.254,4.52v5.352
		c0,0.976,0,1.712,0.121,2.545h-1.475V115.382z"/>
	<path clip-path="url(#SVGID_2_)" d="M309.465,106.82c-0.808-0.356-1.784-0.619-2.59-0.619c-2.927,0-4.568,2.118-4.568,5.066
		c0,2.759,1.665,5.066,4.402,5.066c0.948,0,1.829-0.215,2.732-0.547l0.143,1.403c-1.02,0.356-1.974,0.428-3.116,0.428
		c-3.899,0-5.801-2.974-5.801-6.351c0-3.733,2.401-6.351,5.993-6.351c1.45,0,2.496,0.334,2.924,0.479L309.465,106.82"/>
	<path clip-path="url(#SVGID_2_)" d="M319.525,110.411c0-2.115-0.855-4.21-3.092-4.21c-2.211,0-3.567,2.214-3.567,4.21H319.525
		 M320.265,116.95c-1.05,0.431-2.401,0.668-3.522,0.668c-4.019,0-5.517-2.711-5.517-6.351c0-3.71,2.048-6.351,5.114-6.351
		c3.423,0,4.828,2.761,4.828,6.019v0.759h-8.302c0,2.57,1.379,4.64,3.996,4.64c1.093,0,2.688-0.453,3.402-0.905V116.95z"/>
	<path clip-path="url(#SVGID_2_)" d="M342.191,102.587c-1.048-0.547-2.543-0.713-3.713-0.713c-4.302,0-6.727,3.043-6.727,7.157
		c0,4.187,2.354,7.159,6.727,7.159c1.098,0,2.762-0.143,3.713-0.712l0.094,1.426c-0.903,0.548-2.757,0.714-3.807,0.714
		c-5.228,0-8.369-3.449-8.369-8.587c0-5.041,3.234-8.583,8.369-8.583c0.978,0,2.95,0.165,3.807,0.62L342.191,102.587"/>
	<path clip-path="url(#SVGID_2_)" d="M353.89,110.411c0-2.115-0.856-4.21-3.092-4.21c-2.211,0-3.565,2.214-3.565,4.21H353.89
		 M354.628,116.95c-1.049,0.431-2.402,0.668-3.521,0.668c-4.018,0-5.517-2.711-5.517-6.351c0-3.71,2.047-6.351,5.113-6.351
		c3.425,0,4.828,2.761,4.828,6.019v0.759h-8.299c0,2.57,1.378,4.64,3.993,4.64c1.096,0,2.688-0.453,3.402-0.905V116.95z"/>
	<path clip-path="url(#SVGID_2_)" d="M358.384,108.058c0-0.93,0-1.88-0.094-2.854h1.452v2.163h0.047
		c0.498-1.093,1.402-2.45,3.922-2.45c2.997,0,4.14,1.999,4.14,4.662v7.755h-1.498v-7.374c0-2.282-0.809-3.758-2.879-3.758
		c-2.733,0-3.591,2.403-3.591,4.423v6.709h-1.499V108.058"/>
	<path clip-path="url(#SVGID_2_)" d="M376.84,106.487h-2.759v7.848c0,1.095,0.404,1.999,1.618,1.999
		c0.569,0,0.951-0.121,1.377-0.286l0.096,1.237c-0.354,0.143-1.093,0.333-1.831,0.333c-2.662,0-2.758-1.831-2.758-4.044v-7.087
		h-2.377v-1.283h2.377v-2.926l1.498-0.523v3.449h2.759V106.487"/>
	<path clip-path="url(#SVGID_2_)" d="M386.923,110.411c0-2.115-0.854-4.21-3.09-4.21c-2.213,0-3.569,2.214-3.569,4.21H386.923
		 M387.662,116.95c-1.048,0.431-2.404,0.668-3.521,0.668c-4.018,0-5.518-2.711-5.518-6.351c0-3.71,2.047-6.351,5.113-6.351
		c3.426,0,4.828,2.761,4.828,6.019v0.759h-8.301c0,2.57,1.379,4.64,3.997,4.64c1.092,0,2.686-0.453,3.401-0.905V116.95z"/>
	<path clip-path="url(#SVGID_2_)" d="M391.419,107.914c0-1.332,0-1.831-0.096-2.71h1.499v2.33h0.047
		c0.55-1.355,1.57-2.617,3.116-2.617c0.357,0,0.784,0.071,1.048,0.144v1.569c-0.311-0.094-0.717-0.143-1.094-0.143
		c-2.38,0-3.021,2.665-3.021,4.851v5.995h-1.499V107.914"/>
</g>
</svg>
