<?xml version="1.0" encoding="UTF-8" standalone="no"?>
<!-- Created with Inkscape (http://www.inkscape.org/) -->

<svg
   xmlns:dc="http://purl.org/dc/elements/1.1/"
   xmlns:cc="http://creativecommons.org/ns#"
   xmlns:rdf="http://www.w3.org/1999/02/22-rdf-syntax-ns#"
   xmlns:svg="http://www.w3.org/2000/svg"
   xmlns="http://www.w3.org/2000/svg"
   xmlns:sodipodi="http://sodipodi.sourceforge.net/DTD/sodipodi-0.dtd"
   xmlns:inkscape="http://www.inkscape.org/namespaces/inkscape"
   id="svg3020"
   version="1.1"
   inkscape:version="0.48.2 r9819"
   width="581.19625"
   height="171.53625"
   xml:space="preserve"
   sodipodi:docname="DLR.pdf"><metadata
     id="metadata3026"><rdf:RDF><cc:Work
         rdf:about=""><dc:format>image/svg+xml</dc:format><dc:type
           rdf:resource="http://purl.org/dc/dcmitype/StillImage" /><dc:title></dc:title></cc:Work></rdf:RDF></metadata><defs
     id="defs3024"><clipPath
       clipPathUnits="userSpaceOnUse"
       id="clipPath3034"><path
         d="m 0,841.89 595.276,0 L 595.276,0 0,0 0,841.89 z"
         id="path3036" /></clipPath></defs><sodipodi:namedview
     pagecolor="#ffffff"
     bordercolor="#666666"
     borderopacity="1"
     objecttolerance="10"
     gridtolerance="10"
     guidetolerance="10"
     inkscape:pageopacity="0"
     inkscape:pageshadow="2"
     inkscape:window-width="1680"
     inkscape:window-height="998"
     id="namedview3022"
     showgrid="false"
     inkscape:zoom="0.55402975"
     inkscape:cx="290.59811"
     inkscape:cy="85.768127"
     inkscape:window-x="-8"
     inkscape:window-y="-8"
     inkscape:window-maximized="1"
     inkscape:current-layer="g3028" /><g
     id="g3028"
     inkscape:groupmode="layer"
     inkscape:label="DLR"
     transform="matrix(1.25,0,0,-1.25,-141.25,741.255)"><g
       id="g3030"><g
         id="g3032"
         clip-path="url(#clipPath3034)"><g
           id="g3038"
           transform="translate(218.6084,506.9063)"><path
             d="m 0,0 1.172,0 c 1.753,0 3.764,0.255 3.764,2.466 0,2.137 -1.986,2.316 -3.764,2.316 L 0,4.782 0,0 z m -3.564,7.582 3.841,0 c 3.817,0 8.374,0.126 8.374,-4.81 0,-2.085 -1.402,-3.816 -3.666,-4.121 l 0,-0.05 C 5.954,-1.476 6.514,-2.444 6.869,-3.23 l 2.848,-6.947 -3.968,0 -2.137,5.547 c -0.511,1.322 -0.968,1.829 -2.468,1.829 l -1.144,0 0,-7.376 -3.564,0 0,17.759 z m -13.648,0 3.564,0 0,-14.96 6.893,0 0,-2.799 -10.457,0 0,17.759 z m -15.319,-14.96 1.981,0 c 2.975,0 5.852,2.213 5.852,6.08 0,3.866 -2.877,6.08 -5.852,6.08 l -1.981,0 0,-12.16 z m -3.564,14.96 4.859,0 c 5.443,0 10.253,-1.835 10.253,-8.88 0,-7.047 -4.81,-8.879 -10.253,-8.879 l -4.859,0 0,17.759 z m 22.197,23.489 -16.243,0 11.761,11.776 16.251,0 -11.769,-11.776 z m -24.702,0 -16.676,0 11.76,11.776 16.681,0 L -38.6,31.071 z m -20.885,-20.884 0,14.891 14.858,0 -14.858,-14.891 z m -20.771,20.884 11.761,11.776 16.492,0 -11.769,-11.776 -16.484,0 z m 57.413,32.445 0,-14.683 -14.682,0 14.682,14.683 z m 5.974,-14.665 0,29.128 -29.086,-29.128 -24.96,0 -23.778,-23.782 29.278,-0.002 0,-29.205 29.218,29.215 24.742,0 23.762,23.774 -29.176,0 z"
             style="fill:#0b0b0b;fill-opacity:1;fill-rule:nonzero;stroke:none"
             id="path3040" /></g><g
           id="g3042"
           transform="translate(399.8789,537.1182)"><path
             d="m 0,0 c 1.906,0 2.669,-1.424 2.769,-3.082 l -5.803,0 C -2.881,-1.329 -1.913,0 0,0 m -3.034,-5.426 9.063,0 c 0,4.586 -1.371,7.922 -6.237,7.922 -4.073,0 -6.089,-3.131 -6.089,-6.928 0,-4.304 2.526,-6.797 6.857,-6.797 1.83,0 3.252,0.354 4.506,1.041 l 0,2.779 C 3.785,-8.128 2.362,-8.736 0.711,-8.736 c -2.113,0 -3.592,1.198 -3.745,3.31 m 9.028,-61.066 5.414,0 0,1.487 -5.414,0 0,-1.487 z m -51.438,6.186 c -1.726,0 -3.021,-1.032 -3.512,-2.33 l -0.041,0 c -0.351,1.921 -1.944,2.33 -2.911,2.33 -2.356,0 -2.999,-1.379 -3.425,-2.135 l -0.048,0.019 0,1.858 -1.309,0 c 0.086,-0.886 0.086,-1.748 0.086,-2.589 l 0,-8.402 1.358,0 0,6.076 c 0,2.733 1.464,4.008 2.948,4.008 1.742,0 2.328,-1.229 2.328,-2.779 l 0,-7.305 1.353,0 0,6.076 c 0,2.733 1.469,4.008 2.954,4.008 1.747,0 2.325,-1.229 2.325,-2.779 l 0,-7.305 1.363,0 0,7.562 c 0,2.136 -1.255,3.687 -3.469,3.687 m 57.131,30.154 0,4.787 1.174,0 c 1.783,0 3.771,-0.178 3.771,-2.319 0,-2.213 -2.023,-2.468 -3.771,-2.468 l -1.174,0 z m 3.619,-4.633 2.132,-5.554 3.974,0 -2.85,6.952 c -0.364,0.789 -0.919,1.757 -1.888,1.834 l 0,0.051 c 2.271,0.306 3.665,2.037 3.665,4.128 0,4.936 -4.55,4.812 -8.368,4.812 l -3.848,0 0,-17.777 3.564,0 0,7.384 1.142,0 c 1.503,0 1.965,-0.508 2.477,-1.83 m 12.63,-3.362 c -1.227,0 -2.169,0.483 -2.169,1.605 0,2.011 2.269,2.263 3.796,2.263 l 1.472,0 c 0,-1.017 -0.151,-1.958 -0.707,-2.7 -0.537,-0.71 -1.35,-1.168 -2.392,-1.168 m 3.202,-0.23 0.05,0 c 0.025,-0.404 0.025,-1.272 0.149,-1.962 l 3.013,0 c -0.079,1.02 -0.13,1.936 -0.156,2.93 -0.024,0.97 -0.053,1.962 -0.053,3.284 l 0,1.682 c 0,3.869 -1.652,5.521 -5.652,5.521 -1.448,0 -3.232,-0.379 -4.553,-0.992 l 0.1,-2.924 c 1.152,0.867 2.598,1.427 4.051,1.427 2.007,0 2.948,-0.716 2.948,-2.826 l -1.882,0 c -1.424,0 -3.105,-0.134 -4.409,-0.769 -1.291,-0.633 -2.238,-1.779 -2.238,-3.742 0,-2.494 2.269,-3.895 4.582,-3.895 1.549,0 3.261,0.815 4.05,2.266 m 20.35,-21.929 c -1.725,0 -3.018,-1.032 -3.514,-2.33 l -0.041,0 c -0.348,1.921 -1.942,2.33 -2.912,2.33 -2.341,0 -2.989,-1.379 -3.433,-2.135 l -0.036,0.019 0,1.858 -1.312,0 c 0.086,-0.886 0.086,-1.748 0.086,-2.589 l 0,-8.402 1.354,0 0,6.076 c 0,2.733 1.466,4.008 2.953,4.008 1.744,0 2.327,-1.229 2.327,-2.779 l 0,-7.305 1.356,0 0,6.076 c 0,2.733 1.467,4.008 2.952,4.008 1.75,0 2.326,-1.229 2.326,-2.779 l 0,-7.305 1.36,0 0,7.562 c 0,2.136 -1.25,3.687 -3.466,3.687 m -21.27,-4.979 c 0,1.807 1.228,3.814 3.232,3.814 2.031,0 2.804,-1.893 2.804,-3.814 l -6.036,0 z m 3.147,4.979 c -2.777,0 -4.634,-2.394 -4.634,-5.756 0,-3.295 1.363,-5.751 4.998,-5.751 1.009,0 2.245,0.214 3.191,0.6 l 0,1.38 c -0.648,-0.409 -2.086,-0.819 -3.081,-0.819 -2.374,0 -3.621,1.875 -3.621,4.205 l 7.523,0 0,0.687 c 0,2.953 -1.268,5.454 -4.376,5.454 m 12.132,21.747 0.055,0 0,-1.78 3.23,0 0,13.114 -3.409,0 0,-6.414 c 0,-1.679 -0.536,-4.355 -3.006,-4.355 -2.189,0 -2.213,2.165 -2.213,3.771 l 0,6.998 -3.416,0 0,-8.274 c 0,-2.952 1.353,-5.144 4.455,-5.144 1.788,0 3.256,0.815 4.304,2.084 m -71.412,4.641 c 0,1.681 0.531,4.351 3.003,4.351 2.193,0 2.214,-2.165 2.214,-3.771 l 0,-7.001 3.413,0 0,8.276 c 0,2.956 -1.353,5.141 -4.459,5.141 -1.785,0 -3.236,-0.578 -4.305,-2.083 l -0.049,0 0,1.78 -3.228,0 0,-13.114 3.411,0 0,6.421 z m -8.767,32.467 c 0,1.117 1.101,1.451 2.013,1.451 1.246,0 2.011,-0.205 3.051,-0.561 l 0.234,2.572 c -1.068,0.228 -2.122,0.485 -3.713,0.485 -2.675,0 -5.147,-1.251 -5.147,-4.078 0,-4.732 5.93,-2.978 5.93,-5.551 0,-1.273 -1.377,-1.603 -2.236,-1.603 -1.176,0 -2.297,0.33 -3.368,0.867 l -0.205,-2.803 c 1.251,-0.331 2.573,-0.557 3.875,-0.557 2.776,0 5.498,1.219 5.498,4.274 0,4.736 -5.932,3.415 -5.932,5.504 m 93.617,-63.834 c 0,1.807 1.233,3.814 3.234,3.814 2.028,0 2.804,-1.893 2.804,-3.814 l -6.038,0 z m 3.153,4.979 c -2.779,0 -4.632,-2.394 -4.632,-5.756 0,-3.295 1.355,-5.751 4.993,-5.751 1.015,0 2.243,0.214 3.193,0.6 l 0,1.38 c -0.647,-0.409 -2.087,-0.819 -3.08,-0.819 -2.373,0 -3.627,1.875 -3.627,4.205 l 7.523,0 0,0.687 c 0,2.953 -1.267,5.454 -4.37,5.454 m -95.919,0 c -1.62,0 -2.845,-0.904 -3.429,-2.116 l -0.044,0 0,7.03 -1.357,0 0,-16.163 1.357,0 0,5.883 c 0,1.919 0.843,4.201 3.261,4.201 2.239,0 2.601,-1.638 2.601,-3.534 l 0,-6.55 1.36,0 0,6.573 c 0,2.712 -0.797,4.676 -3.749,4.676 m -1.914,21.747 0,-1.78 3.231,0 0,13.114 -3.413,0 0,-6.414 c 0,-1.679 -0.534,-4.355 -2.998,-4.355 -2.192,0 -2.219,2.165 -2.219,3.771 l 0,6.998 -3.41,0 0,-8.274 c 0,-2.952 1.348,-5.144 4.45,-5.144 1.786,0 3.257,0.815 4.307,2.084 l 0.052,0 z m 32.247,-23.173 6.352,0 -6.608,-8.682 0,-1.141 8.183,0 0,1.164 -6.614,0 6.614,8.659 0,1.168 -7.927,0 0,-1.168 z m -2.716,-8.92 c -1.098,0 -1.461,0.819 -1.461,1.809 l 0,7.111 2.492,0 0,1.168 -2.492,0 0,3.122 -1.358,-0.478 0,-2.644 -2.156,0 0,-1.168 2.156,0 0,-6.418 c 0,-2.003 0.086,-3.663 2.499,-3.663 0.674,0 1.331,0.171 1.657,0.304 l -0.085,1.118 c -0.389,-0.15 -0.734,-0.261 -1.252,-0.261 m -16.178,0 c -2.371,0 -3.64,2.048 -3.64,4.59 0,2.544 1.269,4.591 3.64,4.591 2.365,0 3.637,-2.047 3.637,-4.591 0,-2.542 -1.272,-4.59 -3.637,-4.59 m 0,10.346 c -3.558,0 -5.134,-2.761 -5.134,-5.756 0,-2.997 1.576,-5.751 5.134,-5.751 3.556,0 5.128,2.754 5.128,5.751 0,2.995 -1.572,5.756 -5.128,5.756 m 11.006,26.564 c 0,1.759 0.619,4.175 2.835,4.175 2.186,0 3.052,-2.341 3.052,-4.175 0,-1.86 -0.743,-4.252 -3,-4.252 -2.243,0 -2.887,2.445 -2.887,4.252 m 5.961,-5.117 0.051,0 0,-1.48 3.314,0 0,19.102 -3.422,0 0,-7.51 -0.045,0 c -1.015,1.247 -2.217,1.825 -3.92,1.825 -4.025,0 -5.497,-3.205 -5.497,-6.82 0,-3.592 1.472,-6.901 5.497,-6.901 1.605,0 3.006,0.508 4.022,1.784 m -9.273,-32.696 1.358,0 0,16.163 -1.358,0 0,-16.163 z m 35.65,6.851 3.494,0 0,-5.275 c -0.715,-0.435 -2.258,-0.544 -3.191,-0.544 -3.969,0 -6.097,2.693 -6.097,6.488 0,3.729 2.203,6.486 6.097,6.486 1.313,0 2.699,-0.153 3.865,-0.797 l 0.167,1.379 c -1.009,0.516 -2.885,0.714 -4.032,0.714 -4.652,0 -7.584,-3.212 -7.584,-7.782 0,-4.654 2.848,-7.778 7.584,-7.778 1.661,0 3.15,0.258 4.679,0.923 l 0,7.48 -4.982,0 0,-1.294 z m 87.634,4.398 c -1.618,0 -2.847,-0.904 -3.433,-2.116 l -0.043,0 0,7.03 -1.352,0 0,-16.163 1.352,0 0,5.883 c 0,1.919 0.844,4.201 3.254,4.201 2.244,0 2.606,-1.638 2.606,-3.534 l 0,-6.55 1.362,0 0,6.573 c 0,2.712 -0.8,4.676 -3.746,4.676 m 18.846,0.538 0,-0.796 -2.212,0 0,-1.168 2.212,0 0,-9.823 1.361,0 0,9.823 2.474,0 0,1.168 -2.474,0 0,0.947 c 0,1.316 -0.195,3.315 1.661,3.315 0.382,0 0.788,-0.083 1.072,-0.234 l 0.09,1.182 c -0.258,0.153 -0.845,0.217 -1.28,0.217 -2.815,0 -2.904,-2.323 -2.904,-4.631 m 2.573,19.429 -0.107,2.701 c -0.355,-0.232 -0.936,-0.356 -1.55,-0.356 -1.297,0 -1.603,1.046 -1.603,2.165 l 0,6.11 3.029,0 0,2.494 -3.029,0 0,3.719 -3.41,-1.095 0,-2.624 -2.522,0 0,-2.494 2.522,0 0,-6.674 c 0,-2.593 1.476,-4.25 4.144,-4.25 1.028,0 1.812,0.103 2.526,0.304 m -8.089,-26.346 c 0,-1.186 -0.063,-3.967 -3.254,-3.967 -1.245,0 -2.278,0.54 -2.278,1.984 0,2.416 2.798,2.647 5.143,2.647 l 0.389,0 0,-0.664 z m 1.36,2.287 c 0,2.866 -1.15,4.092 -3.855,4.092 -0.975,0 -2.399,-0.344 -3.238,-0.755 l 0,-1.316 c 1.011,0.645 2.095,0.906 3.238,0.906 1.833,0 2.495,-0.951 2.495,-2.826 l 0,-0.557 -0.25,0 c -2.852,0 -6.772,-0.17 -6.772,-3.857 0,-0.991 0.502,-3.102 3.627,-3.102 1.353,0 2.881,0.71 3.486,2.023 l 0.038,0 0,-1.765 1.344,0 c -0.113,0.752 -0.113,1.422 -0.113,2.303 l 0,4.854 z m 14.112,-6.254 c -1.097,0 -1.468,0.819 -1.468,1.809 l 0,7.111 2.502,0 0,1.168 -2.502,0 0,3.122 -1.355,-0.478 0,-2.644 -2.154,0 0,-1.168 2.154,0 0,-6.418 c 0,-2.003 0.085,-3.663 2.499,-3.663 0.669,0 1.335,0.171 1.66,0.304 l -0.089,1.118 c -0.387,-0.15 -0.723,-0.261 -1.247,-0.261 m 29.583,30.313 2.063,0 0,2.136 -2.063,0 0,-2.136 z m -14.592,0 2.063,0 0,2.136 -2.063,0 0,-2.136 z m 15.315,17.777 -6.378,-16.02 -5.282,16.02 -1.869,0 6.183,-17.777 1.887,0 7.184,17.777 -1.725,0 z m -27.409,-10.365 c 0,2.138 1.453,4.509 3.827,4.509 2.382,0 3.307,-2.245 3.307,-4.509 l -7.134,0 z m 3.718,5.882 c -3.288,0 -5.473,-2.829 -5.473,-6.801 0,-3.891 1.605,-6.797 5.903,-6.797 1.198,0 2.655,0.256 3.772,0.711 l 0,1.629 c -0.767,-0.478 -2.468,-0.967 -3.642,-0.967 -2.798,0 -4.278,2.217 -4.278,4.971 l 8.889,0 0,0.813 c 0,3.486 -1.499,6.441 -5.171,6.441 m -70.809,16.12 3.41,0 0,8.271 c 0,2.933 -0.916,5.15 -4.147,5.15 -1.602,0 -3.309,-0.742 -4.1,-2.321 -0.732,1.628 -2.041,2.321 -3.866,2.321 -1.278,0 -2.829,-0.539 -3.9,-2.144 l -0.046,0 0,1.836 -3.186,0 0,-13.113 3.41,0 0,6.365 c 0,1.707 0.287,4.405 2.55,4.405 1.962,0 1.962,-1.732 1.962,-2.954 l 0,-7.816 3.407,0 0,6.365 c 0,1.707 0.287,4.405 2.548,4.405 1.958,0 1.958,-1.732 1.958,-2.954 l 0,-7.816 z m 32.341,-22.413 0,-7.001 3.416,0 0,8.276 c 0,2.956 -1.35,5.141 -4.46,5.141 -1.778,0 -3.255,-0.812 -4.121,-2.083 l -0.051,0 0,7.768 -3.413,0 0,-19.102 3.413,0 0,6.421 c 0,1.681 0.535,4.351 3.005,4.351 2.191,0 2.211,-2.165 2.211,-3.771 m -36.492,-38.217 1.364,0 0,10.99 -1.364,0 0,-10.99 z m 0,13.92 1.364,0 0,1.809 -1.364,0 0,-1.809 z m -2.032,30.713 c -1.602,0 -3.307,-0.734 -4.098,-2.31 -0.74,1.625 -2.036,2.31 -3.865,2.31 -1.277,0 -2.833,-0.529 -3.896,-2.133 l -0.048,0 0,1.83 -3.185,0 0,-13.114 3.406,0 0,6.368 c 0,1.708 0.279,4.404 2.543,4.404 1.97,0 1.97,-1.728 1.97,-2.952 l 0,-7.82 3.405,0 0,6.368 c 0,1.708 0.287,4.404 2.549,4.404 1.958,0 1.958,-1.728 1.958,-2.952 l 0,-7.82 3.415,0 0,8.276 c 0,2.928 -0.919,5.141 -4.154,5.141 m 8.251,-13.417 3.418,0 0,10.62 2.976,0 0,2.494 -2.976,0 0,1.631 c 0,1.02 0.351,2.01 1.498,2.01 0.742,0 1.172,-0.275 1.478,-0.458 l 0.277,2.827 c -0.661,0.152 -1.629,0.283 -2.495,0.283 -2.697,0 -4.176,-1.835 -4.176,-4.461 l 0,-1.832 -2.518,0 0,-2.494 2.518,0 0,-10.62 z m 23.729,-21.132 c 0.73,0 1.616,-0.238 2.354,-0.56 l 0.106,1.292 c -0.394,0.129 -1.334,0.433 -2.648,0.433 -3.259,0 -5.433,-2.373 -5.433,-5.756 0,-3.058 1.727,-5.751 5.251,-5.751 1.038,0 1.906,0.063 2.83,0.385 l -0.131,1.275 c -0.813,-0.303 -1.621,-0.499 -2.473,-0.499 -2.483,0 -3.987,2.094 -3.987,4.59 0,2.675 1.483,4.591 4.131,4.591 m -13.487,24.929 c 0,2.011 2.264,2.263 3.79,2.263 l 1.476,0 c 0,-1.017 -0.156,-1.958 -0.711,-2.7 -0.541,-0.71 -1.355,-1.168 -2.395,-1.168 -1.224,0 -2.16,0.483 -2.16,1.605 m 5.361,-1.835 0.056,0 c 0.019,-0.404 0.019,-1.272 0.154,-1.962 l 3.011,0 c -0.088,1.02 -0.136,1.936 -0.16,2.93 -0.029,0.97 -0.05,1.962 -0.05,3.284 l 0,1.682 c 0,3.869 -1.66,5.521 -5.65,5.521 -1.459,0 -3.236,-0.379 -4.56,-0.992 l 0.098,-2.924 c 1.147,0.867 2.599,1.427 4.051,1.427 2.014,0 2.955,-0.716 2.955,-2.826 l -1.884,0 c -1.428,0 -3.113,-0.134 -4.406,-0.769 -1.298,-0.633 -2.238,-1.779 -2.238,-3.742 0,-2.494 2.268,-3.895 4.59,-3.895 1.549,0 3.252,0.815 4.033,2.266 m -4.517,-24.924 c 0,1.399 0.975,1.83 2.364,1.83 0.759,0 1.728,-0.193 2.439,-0.518 l 0.129,1.185 c -0.969,0.367 -2.128,0.498 -2.716,0.498 -1.81,0 -3.574,-0.824 -3.574,-2.995 0,-3.191 5.278,-2.781 5.278,-5.388 0,-1.251 -1.141,-1.963 -2.438,-1.963 -1.051,0 -2.044,0.282 -2.864,0.693 l -0.13,-1.342 c 0.978,-0.387 2.028,-0.512 3.088,-0.512 1.657,0 3.83,0.797 3.83,3.124 0,3.594 -5.406,3.336 -5.406,5.388 m -7.697,2.995 c -2.282,0 -3.097,-1.226 -3.547,-2.219 l -0.042,0 0,1.961 -1.326,0 c 0.086,-0.886 0.086,-1.748 0.086,-2.589 l 0,-8.402 1.363,0 0,6.076 c 0,1.831 0.778,4.008 3.253,4.008 1.875,0 2.605,-1.336 2.605,-3.404 l 0,-6.68 1.357,0 0,7.023 c 0,2.412 -1.03,4.226 -3.749,4.226 m -138.966,25.416 6.69,0 0,2.803 -6.69,0 0,-2.803 z M -122.078,0 c 1.907,0 2.672,-1.424 2.776,-3.082 l -5.806,0 c 0.156,1.753 1.121,3.082 3.03,3.082 m 0.561,-11.229 c 1.831,0 3.26,0.354 4.511,1.041 l 0,2.779 c -1.278,-0.719 -2.702,-1.327 -4.357,-1.327 -2.116,0 -3.589,1.198 -3.745,3.31 l 9.067,0 c 0,4.586 -1.375,7.922 -6.242,7.922 -4.072,0 -6.085,-3.131 -6.085,-6.928 0,-4.304 2.516,-6.797 6.851,-6.797 m 2.778,-18.97 -0.049,0 0,2.974 -3.031,0 0,-13.114 3.416,0 0,4.813 c 0,1.887 0,5.35 2.77,5.35 0.616,0 1.227,-0.101 1.528,-0.286 l 0,3.446 c -0.356,0.094 -0.712,0.094 -1.04,0.094 -2.042,0 -3.443,-2.06 -3.594,-3.277 m 13.341,7.637 0,-17.777 10.468,0 0,2.803 -6.899,0 0,14.974 -3.569,0 z m 22.095,15.429 c 0,-1.273 -1.381,-1.603 -2.243,-1.603 -1.171,0 -2.288,0.33 -3.355,0.867 l -0.206,-2.803 c 1.246,-0.331 2.57,-0.557 3.87,-0.557 2.773,0 5.495,1.219 5.495,4.274 0,4.736 -5.93,3.415 -5.93,5.504 0,1.117 1.096,1.451 2.01,1.451 1.25,0 2.01,-0.205 3.055,-0.561 l 0.226,2.572 c -1.064,0.228 -2.111,0.485 -3.713,0.485 -2.672,0 -5.138,-1.251 -5.138,-4.078 0,-4.732 5.929,-2.978 5.929,-5.551 m -14.204,0.154 c 0,-2.598 1.477,-4.25 4.146,-4.25 1.017,0 1.81,0.098 2.526,0.304 l -0.107,2.696 c -0.351,-0.227 -0.937,-0.353 -1.549,-0.353 -1.296,0 -1.605,1.044 -1.605,2.165 l 0,6.11 3.028,0 0,2.495 -3.028,0 0,3.716 -3.411,-1.094 0,-2.622 -2.52,0 0,-2.495 2.52,0 0,-6.672 z m -47.684,-64.576 1.358,0 0,10.99 -1.358,0 0,-10.99 z m 10.132,46.727 2.955,0 0,2.95 -2.955,0 0,-2.95 z m -6.672,28.874 1.983,0 c 2.979,0 5.854,-2.215 5.854,-6.085 0,-3.871 -2.875,-6.089 -5.854,-6.089 l -1.983,0 0,12.174 z m 11.556,-6.085 c 0,7.052 -4.811,8.887 -10.261,8.887 l -4.864,0 0,-17.773 4.864,0 c 5.45,0 10.261,1.831 10.261,8.886 m 3.314,-19.839 -2.954,0 0,-2.95 2.954,0 0,2.95 z M 24.335,-6.979 c 0,-2.598 1.476,-4.25 4.15,-4.25 1.018,0 1.808,0.098 2.524,0.304 l -0.107,2.696 c -0.353,-0.227 -0.937,-0.353 -1.546,-0.353 -1.303,0 -1.606,1.044 -1.606,2.165 l 0,6.11 3.029,0 0,2.495 -3.029,0 0,3.716 -3.415,-1.094 0,-2.622 -2.515,0 0,-2.495 2.515,0 0,-6.672 z m -169.526,-50.656 1.358,0 0,1.809 -1.358,0 0,-1.809 z M 36.308,-6.113 c 0,1.879 0,5.345 2.769,5.345 0.611,0 1.223,-0.097 1.528,-0.282 l 0,3.445 c -0.353,0.101 -0.709,0.101 -1.04,0.101 -2.039,0 -3.442,-2.063 -3.591,-3.287 l -0.051,0 0,2.979 -3.035,0 0,-13.113 3.42,0 0,4.812 z m -108.187,-5.116 c 1.399,0 2.42,0.125 3.41,0.432 l -0.151,2.822 c -0.585,-0.254 -1.656,-0.607 -2.623,-0.607 -2.39,0 -3.539,1.857 -3.539,4.276 0,2.472 1.353,4.151 3.462,4.151 1.044,0 1.709,-0.203 2.318,-0.48 l 0.303,2.695 c -0.938,0.282 -1.934,0.436 -3.309,0.436 -4.098,0 -6.334,-3.006 -6.334,-6.802 0,-3.995 2.165,-6.923 6.463,-6.923 m 187.495,-24.297 c 0,1.887 0,5.35 2.78,5.35 0.606,0 1.216,-0.101 1.524,-0.286 l 0,3.446 c -0.357,0.094 -0.71,0.094 -1.036,0.094 -2.039,0 -3.444,-2.06 -3.601,-3.277 l -0.045,0 0,2.974 -3.032,0 0,-13.114 3.41,0 0,4.813 z m -68.869,24.297 c 1.78,0 3.253,0.813 4.302,2.084 l 0.048,0 0,-1.78 3.232,0 0,13.113 -3.407,0 0,-6.422 c 0,-1.676 -0.536,-4.348 -3.007,-4.348 -2.186,0 -2.214,2.165 -2.214,3.767 l 0,7.003 -3.416,0 0,-8.277 c 0,-2.952 1.353,-5.14 4.462,-5.14 m -35.064,6.721 c 0,1.679 0.535,4.353 3.005,4.353 2.19,0 2.215,-2.165 2.215,-3.772 l 0,-6.998 3.411,0 0,8.271 c 0,2.959 -1.346,5.15 -4.461,5.15 -1.774,0 -3.229,-0.587 -4.297,-2.088 l -0.049,0 0,1.78 -3.233,0 0,-13.113 3.409,0 0,6.417 z m -74.782,0 c 0,1.679 0.54,4.353 3.002,4.353 2.195,0 2.216,-2.165 2.216,-3.772 l 0,-6.998 3.42,0 0,8.271 c 0,2.959 -1.352,5.15 -4.462,5.15 -1.774,0 -3.255,-0.818 -4.123,-2.088 l -0.053,0 0,7.765 -3.411,0 0,-19.098 3.411,0 0,6.417 z M -45.807,0 c 1.914,0 2.673,-1.424 2.776,-3.082 l -5.806,0 c 0.149,1.753 1.123,3.082 3.03,3.082 m 0.563,-11.229 c 1.835,0 3.256,0.354 4.499,1.041 l 0,2.779 c -1.267,-0.719 -2.696,-1.327 -4.356,-1.327 -2.108,0 -3.587,1.198 -3.736,3.31 l 9.058,0 c 0,4.586 -1.37,7.922 -6.233,7.922 -4.072,0 -6.092,-3.131 -6.092,-6.928 0,-4.304 2.525,-6.797 6.86,-6.797 m 37.806,3.101 -8.61,0 8.43,12.074 0,2.902 -11.811,0 0,-2.802 8.022,0 -8.361,-12.068 0,-2.903 12.33,0 0,2.797 z m -64.056,-57.157 c 0,1.807 1.228,3.814 3.233,3.814 2.027,0 2.796,-1.893 2.796,-3.814 l -6.029,0 z m 3.15,4.979 c -2.783,0 -4.635,-2.394 -4.635,-5.756 0,-3.295 1.358,-5.751 4.993,-5.751 1.014,0 2.243,0.214 3.192,0.6 l 0,1.38 c -0.65,-0.409 -2.083,-0.819 -3.081,-0.819 -2.371,0 -3.619,1.875 -3.619,4.205 l 7.517,0 0,0.687 c 0,2.953 -1.271,5.454 -4.367,5.454 m -36.771,51.161 0.046,0 0,-1.78 3.232,0 0,13.113 -3.412,0 0,-6.422 c 0,-1.676 -0.533,-4.348 -3.001,-4.348 -2.188,0 -2.217,2.165 -2.217,3.767 l 0,7.003 -3.412,0 0,-8.277 c 0,-2.952 1.352,-5.14 4.456,-5.14 1.784,0 3.261,0.813 4.308,2.084 m -13.23,-61.507 c -2.584,0 -3.254,2.457 -3.254,4.59 0,2.134 0.67,4.591 3.254,4.591 2.417,0 3.255,-2.587 3.255,-4.591 0,-2.004 -0.838,-4.59 -3.255,-4.59 m 3.255,8.23 -0.045,0 c -0.197,0.54 -1.268,2.116 -3.426,2.116 -3.232,0 -4.523,-2.415 -4.523,-5.756 0,-3.252 1.508,-5.751 4.523,-5.751 1.575,0 2.697,0.6 3.426,2.002 l 0.045,0 0,-1.744 1.357,0 0,16.163 -1.357,0 0,-7.03 z m 16.718,-0.257 -0.047,0 0,2.115 -1.349,0 c 0.082,-0.802 0.082,-1.251 0.082,-2.458 l 0,-8.533 1.358,0 0,5.432 c 0,1.977 0.581,4.391 2.736,4.391 0.344,0 0.709,-0.042 0.99,-0.125 l 0,1.42 c -0.239,0.064 -0.625,0.131 -0.95,0.131 -1.398,0 -2.325,-1.144 -2.82,-2.373 m 27.419,35.454 -2.985,0 0,1.631 c 0,1.02 0.36,2.01 1.503,2.01 0.745,0 1.171,-0.275 1.482,-0.458 l 0.279,2.827 c -0.669,0.152 -1.635,0.283 -2.5,0.283 -2.693,0 -4.172,-1.835 -4.172,-4.461 l 0,-1.832 -2.517,0 0,-2.494 2.517,0 0,-10.62 3.408,0 0,10.62 2.985,0 0,2.494 z m -38.838,-38.06 c 0,1.807 1.226,3.814 3.235,3.814 2.022,0 2.798,-1.893 2.798,-3.814 l -6.033,0 z m 3.145,4.979 c -2.783,0 -4.63,-2.394 -4.63,-5.756 0,-3.295 1.356,-5.751 5.003,-5.751 1.007,0 2.235,0.214 3.184,0.6 l 0,1.38 c -0.646,-0.409 -2.087,-0.819 -3.085,-0.819 -2.368,0 -3.617,1.875 -3.617,4.205 l 7.52,0 0,0.687 c 0,2.953 -1.275,5.454 -4.375,5.454 m 29.403,-2.87 -7.607,0 0,6.66 -1.482,0 0,-15.039 1.482,0 0,7.089 7.607,0 0,-7.089 1.483,0 0,15.039 -1.483,0 0,-6.66 z m -7.764,24.617 0,-1.78 3.236,0 0,13.114 -3.417,0 0,-6.414 c 0,-1.679 -0.535,-4.355 -3.001,-4.355 -2.185,0 -2.215,2.165 -2.215,3.771 l 0,6.998 -3.409,0 0,-8.274 c 0,-2.952 1.35,-5.144 4.455,-5.144 1.78,0 3.257,0.815 4.303,2.084 l 0.048,0 z m 23.674,0.921 c -0.364,-0.232 -0.944,-0.356 -1.556,-0.356 -1.297,0 -1.604,1.046 -1.604,2.165 l 0,6.11 3.028,0 0,2.494 -3.028,0 0,3.719 -3.415,-1.095 0,-2.624 -2.518,0 0,-2.494 2.518,0 0,-6.674 c 0,-2.593 1.48,-4.25 4.152,-4.25 1.024,0 1.809,0.103 2.523,0.304 l -0.1,2.701 z m -67.029,3.999 c 0,-1.679 -0.538,-4.355 -3.008,-4.355 -2.188,0 -2.216,2.165 -2.216,3.771 l 0,6.998 -3.406,0 0,-8.274 c 0,-2.952 1.346,-5.144 4.452,-5.144 1.788,0 3.26,0.815 4.305,2.084 l 0.053,0 0,-1.78 3.23,0 0,13.114 -3.41,0 0,-6.414 z m -10.44,6.414 -2.977,0 0,1.631 c 0,1.02 0.356,2.01 1.499,2.01 0.741,0 1.168,-0.275 1.478,-0.458 l 0.281,2.827 c -0.66,0.152 -1.629,0.283 -2.497,0.283 -2.7,0 -4.173,-1.835 -4.173,-4.461 l 0,-1.832 -2.523,0 0,-2.494 2.523,0 0,-10.62 3.412,0 0,10.62 2.977,0 0,2.494 z m 3.216,-33.081 c -2.28,0 -3.094,-1.226 -3.552,-2.219 l -0.043,0 0,1.961 -1.314,0 c 0.087,-0.886 0.087,-1.748 0.087,-2.589 l 0,-8.402 1.36,0 0,6.076 c 0,1.831 0.774,4.008 3.254,4.008 1.874,0 2.608,-1.336 2.608,-3.404 l 0,-6.68 1.355,0 0,7.023 c 0,2.412 -1.039,4.226 -3.755,4.226 m 74.193,-11.249 1.359,0 0,16.163 -1.359,0 0,-16.163 z"
             style="fill:#0b0b0b;fill-opacity:1;fill-rule:nonzero;stroke:none"
             id="path3044" /></g></g></g></g></svg>