<?xml version="1.0" encoding="UTF-8" standalone="no"?>
<!-- Created with Inkscape (http://www.inkscape.org/) -->

<svg
   xmlns:dc="http://purl.org/dc/elements/1.1/"
   xmlns:cc="http://creativecommons.org/ns#"
   xmlns:rdf="http://www.w3.org/1999/02/22-rdf-syntax-ns#"
   xmlns:svg="http://www.w3.org/2000/svg"
   xmlns="http://www.w3.org/2000/svg"
   xmlns:xlink="http://www.w3.org/1999/xlink"
   version="1.1"
   width="405.96799"
   height="88.407997"
   viewBox="0 0 405.968 88.408"
   id="Ebene_1"
   xml:space="preserve"><metadata
     id="metadata141"><rdf:RDF><cc:Work
         rdf:about=""><dc:format>image/svg+xml</dc:format><dc:type
           rdf:resource="http://purl.org/dc/dcmitype/StillImage" /><dc:title></dc:title></cc:Work></rdf:RDF></metadata><defs
     id="defs139"><defs
       id="defs7"><rect
         width="405.96799"
         height="122.326"
         x="0"
         y="0"
         id="SVGID_1_" /></defs><clipPath
       id="SVGID_2_"><use
         id="use11"
         style="overflow:visible"
         x="0"
         y="0"
         width="405.96799"
         height="122.326"
         xlink:href="#SVGID_1_" /></clipPath></defs><g
     transform="translate(0,-0.00100015)"
     id="g3184"><path
       d="M 35.208,52.901 H 50.066 L 35.208,67.792 V 52.901 z M 26.198,35.133 H 42.689 L 30.921,46.907 H 14.437 L 26.198,35.133 z m 24.979,0 h 16.68 L 56.093,46.907 H 39.417 l 11.76,-11.774 z m 25.135,0 H 92.563 L 80.795,46.907 H 64.552 L 76.312,35.133 z M 71.85,14.463 V 29.146 H 57.167 L 71.85,14.463 z M 77.823,0.001 48.738,29.128 H 23.778 L 0,52.909 29.278,52.911 V 82.117 L 58.496,52.903 H 83.237 L 107,29.128 H 77.824 l -0.001,-29.127 0,0 z"
       id="path3" /><path
       d="m 64.143,85.356 h -1.981 v -12.16 h 1.981 c 2.976,0 5.852,2.214 5.852,6.08 0,3.868 -2.876,6.08 -5.852,6.08 m -0.686,-14.96 h -4.858 v 17.759 h 4.858 c 5.443,0 10.253,-1.832 10.253,-8.879 0,-7.045 -4.81,-8.88 -10.253,-8.88"
       clip-path="url(#SVGID_2_)"
       id="path13" /><polygon
       points="77.481,70.396 81.044,70.396 81.044,85.356 87.938,85.356 87.938,88.155 77.481,88.155 "
       clip-path="url(#SVGID_2_)"
       id="polygon15" /><path
       d="m 95.865,77.979 h -1.172 v -4.783 h 1.172 c 1.778,0 3.764,0.18 3.764,2.316 0,2.213 -2.011,2.467 -3.764,2.467 m 5.697,3.23 c -0.355,-0.786 -0.916,-1.755 -1.884,-1.831 v -0.051 c 2.264,-0.304 3.666,-2.035 3.666,-4.121 0,-4.936 -4.557,-4.81 -8.374,-4.81 h -3.841 v 17.759 h 3.564 v -7.376 h 1.144 c 1.499,0 1.957,0.507 2.468,1.829 l 2.137,5.547 h 3.968 l -2.848,-6.946 z"
       clip-path="url(#SVGID_2_)"
       id="path17" /></g><g
     transform="translate(0,-0.00100015)"
     id="g3190"><path
       d="m 137.162,74.991 h -2.977 V 73.36 c 0,-1.02 0.356,-2.01 1.499,-2.01 0.741,0 1.167,0.275 1.478,0.458 l 0.28,-2.827 c -0.659,-0.152 -1.628,-0.283 -2.496,-0.283 -2.7,0 -4.174,1.835 -4.174,4.461 v 1.832 h -2.522 v 2.494 h 2.522 v 10.62 h 3.413 v -10.62 h 2.977 v -2.494"
       clip-path="url(#SVGID_2_)"
       id="path19" /><path
       d="m 147.601,81.405 c 0,1.68 -0.538,4.355 -3.007,4.355 -2.189,0 -2.217,-2.166 -2.217,-3.771 v -6.998 h -3.405 v 8.274 c 0,2.953 1.345,5.144 4.451,5.144 1.788,0 3.261,-0.815 4.305,-2.084 h 0.053 v 1.78 h 3.231 V 74.991 h -3.411 v 6.414"
       clip-path="url(#SVGID_2_)"
       id="path21" /><path
       d="m 214.63,85.404 c -0.364,0.231 -0.944,0.356 -1.556,0.356 -1.296,0 -1.604,-1.046 -1.604,-2.166 v -6.109 h 3.028 v -2.494 h -3.028 v -3.719 l -3.415,1.095 v 2.624 h -2.518 v 2.494 h 2.518 v 6.674 c 0,2.594 1.48,4.25 4.152,4.25 1.024,0 1.809,-0.103 2.523,-0.304 l -0.1,-2.701"
       clip-path="url(#SVGID_2_)"
       id="path23" /><path
       d="m 190.957,86.325 v 1.78 h 3.235 V 74.991 h -3.416 v 6.414 c 0,1.68 -0.535,4.355 -3.002,4.355 -2.184,0 -2.215,-2.166 -2.215,-3.771 v -6.998 h -3.409 v 8.274 c 0,2.952 1.351,5.144 4.455,5.144 1.78,0 3.258,-0.815 4.304,-2.084 h 0.048"
       clip-path="url(#SVGID_2_)"
       id="path25" /><path
       d="m 205.01,74.991 h -2.984 V 73.36 c 0,-1.02 0.359,-2.01 1.502,-2.01 0.745,0 1.171,0.275 1.481,0.458 l 0.279,-2.827 c -0.669,-0.152 -1.635,-0.283 -2.5,-0.283 -2.693,0 -4.172,1.835 -4.172,4.461 v 1.832 H 196.1 v 2.494 h 2.517 v 10.62 h 3.409 v -10.62 h 2.984 v -2.494"
       clip-path="url(#SVGID_2_)"
       id="path27" /><path
       d="m 170.848,56.911 h 0.046 v 1.78 h 3.232 V 45.578 h -3.412 v 6.423 c 0,1.676 -0.533,4.347 -3.001,4.347 -2.188,0 -2.217,-2.165 -2.217,-3.766 v -7.004 h -3.412 v 8.277 c 0,2.952 1.352,5.14 4.456,5.14 1.784,0 3.261,-0.813 4.308,-2.084"
       clip-path="url(#SVGID_2_)"
       id="path29" /><polygon
       points="264.556,43.72 256.196,55.789 256.196,58.691 268.526,58.691 268.526,55.894 259.916,55.894 268.345,43.82 268.345,40.918 256.535,40.918 256.535,43.72 "
       clip-path="url(#SVGID_2_)"
       id="polygon31" /><path
       d="m 230.156,47.767 c 1.914,0 2.673,1.424 2.775,3.082 h -5.806 c 0.15,-1.754 1.124,-3.082 3.031,-3.082 m -3.03,5.425 h 9.058 c 0,-4.586 -1.369,-7.922 -6.232,-7.922 -4.072,0 -6.092,3.131 -6.092,6.928 0,4.304 2.524,6.797 6.859,6.797 1.835,0 3.256,-0.354 4.499,-1.041 v -2.779 c -1.267,0.719 -2.695,1.327 -4.355,1.327 -2.109,0 -3.588,-1.198 -3.737,-3.31"
       clip-path="url(#SVGID_2_)"
       id="path33" /><path
       d="m 212.865,52.274 c 0,-1.679 0.54,-4.352 3.002,-4.352 2.193,0 2.216,2.164 2.216,3.771 v 6.998 h 3.42 V 50.42 c 0,-2.958 -1.352,-5.15 -4.462,-5.15 -1.775,0 -3.255,0.818 -4.123,2.088 h -0.053 v -7.765 h -3.411 v 19.098 h 3.411 v -6.417"
       clip-path="url(#SVGID_2_)"
       id="path35" /><path
       d="m 287.646,52.274 c 0,-1.679 0.534,-4.352 3.005,-4.352 2.189,0 2.216,2.164 2.216,3.771 v 6.998 h 3.411 V 50.42 c 0,-2.958 -1.348,-5.15 -4.462,-5.15 -1.773,0 -3.229,0.587 -4.298,2.088 h -0.049 v -1.78 h -3.231 v 13.113 h 3.408 v -6.417"
       clip-path="url(#SVGID_2_)"
       id="path37" /><path
       d="m 322.71,58.995 c 1.78,0 3.253,-0.812 4.302,-2.084 h 0.048 v 1.78 h 3.232 V 45.578 h -3.407 v 6.423 c 0,1.676 -0.536,4.348 -3.007,4.348 -2.187,0 -2.214,-2.165 -2.214,-3.767 v -7.004 h -3.416 v 8.277 c 0,2.952 1.353,5.14 4.462,5.14"
       clip-path="url(#SVGID_2_)"
       id="path39" /><path
       d="m 391.58,83.293 c 0,-1.888 0,-5.351 2.779,-5.351 0.606,0 1.217,0.102 1.524,0.287 v -3.447 c -0.356,-0.093 -0.71,-0.093 -1.036,-0.093 -2.039,0 -3.443,2.06 -3.601,3.276 h -0.045 V 74.99 h -3.032 v 13.115 h 3.41 v -4.812"
       clip-path="url(#SVGID_2_)"
       id="path41" /><path
       d="m 204.085,58.995 c 1.398,0 2.42,-0.125 3.41,-0.432 l -0.151,-2.822 c -0.585,0.254 -1.654,0.608 -2.623,0.608 -2.39,0 -3.539,-1.858 -3.539,-4.277 0,-2.471 1.353,-4.15 3.461,-4.15 1.046,0 1.709,0.203 2.318,0.479 l 0.303,-2.694 c -0.938,-0.282 -1.934,-0.437 -3.309,-0.437 -4.099,0 -6.334,3.006 -6.334,6.802 0.001,3.995 2.166,6.923 6.464,6.923"
       clip-path="url(#SVGID_2_)"
       id="path43" /><path
       d="m 312.271,53.88 c 0,-1.879 0,-5.346 2.77,-5.346 0.611,0 1.222,0.098 1.528,0.283 v -3.445 c -0.354,-0.101 -0.709,-0.101 -1.04,-0.101 -2.039,0 -3.443,2.063 -3.593,3.287 h -0.051 v -2.98 h -3.035 v 13.113 h 3.421 V 53.88"
       clip-path="url(#SVGID_2_)"
       id="path45" /><path
       d="m 300.298,54.745 c 0,2.599 1.478,4.25 4.15,4.25 1.018,0 1.808,-0.098 2.523,-0.304 l -0.106,-2.696 c -0.354,0.228 -0.938,0.354 -1.546,0.354 -1.304,0 -1.606,-1.044 -1.606,-2.165 v -6.111 h 3.029 v -2.495 h -3.029 v -3.716 l -3.415,1.095 v 2.621 h -2.515 v 2.495 h 2.515 v 6.672"
       clip-path="url(#SVGID_2_)"
       id="path47" /><rect
       width="2.954"
       height="2.948"
       x="146.14799"
       y="69.646004"
       clip-path="url(#SVGID_2_)"
       id="rect49" /><path
       d="m 136.216,55.894 h -1.984 V 43.72 h 1.984 c 2.979,0 5.854,2.215 5.854,6.085 0,3.871 -2.875,6.089 -5.854,6.089 m -0.688,-14.976 h -4.865 v 17.773 h 4.865 c 5.45,0 10.26,-1.831 10.26,-8.886 0,-7.052 -4.81,-8.887 -10.26,-8.887"
       clip-path="url(#SVGID_2_)"
       id="path51" /><rect
       width="2.9549999"
       height="2.948"
       x="140.90401"
       y="69.646004"
       clip-path="url(#SVGID_2_)"
       id="rect53" /><path
       d="m 178.457,54.745 c 0,2.599 1.477,4.25 4.146,4.25 1.017,0 1.81,-0.098 2.526,-0.304 l -0.108,-2.696 c -0.351,0.228 -0.937,0.354 -1.548,0.354 -1.296,0 -1.605,-1.044 -1.605,-2.165 v -6.111 h 3.028 v -2.495 h -3.028 v -3.716 l -3.411,1.095 v 2.621 h -2.52 v 2.495 h 2.52 v 6.672"
       clip-path="url(#SVGID_2_)"
       id="path55" /><path
       d="m 192.661,54.899 c 0,1.274 -1.381,1.603 -2.243,1.603 -1.171,0 -2.288,-0.329 -3.356,-0.867 l -0.205,2.803 c 1.245,0.331 2.57,0.557 3.869,0.557 2.774,0 5.496,-1.219 5.496,-4.274 0,-4.736 -5.931,-3.415 -5.931,-5.504 0,-1.117 1.097,-1.451 2.011,-1.451 1.25,0 2.01,0.205 3.055,0.561 l 0.226,-2.571 c -1.065,-0.229 -2.111,-0.486 -3.713,-0.486 -2.671,0 -5.139,1.251 -5.139,4.078 0,4.734 5.93,2.978 5.93,5.551"
       clip-path="url(#SVGID_2_)"
       id="path57" /><polygon
       points="170.565,70.328 170.565,88.105 181.034,88.105 181.034,85.303 174.134,85.303 174.134,70.328 "
       clip-path="url(#SVGID_2_)"
       id="polygon59" /><path
       d="m 157.224,77.966 h -0.049 v -2.975 h -3.031 v 13.115 h 3.416 v -4.813 c 0,-1.889 0,-5.35 2.77,-5.35 0.617,0 1.227,0.101 1.528,0.286 v -3.447 c -0.356,-0.093 -0.712,-0.093 -1.04,-0.093 -2.041,0 -3.443,2.06 -3.594,3.277"
       clip-path="url(#SVGID_2_)"
       id="path61" /><path
       d="m 153.885,47.767 c 1.907,0 2.672,1.424 2.776,3.082 h -5.806 c 0.156,-1.754 1.121,-3.082 3.03,-3.082 m -3.03,5.425 h 9.067 c 0,-4.586 -1.375,-7.922 -6.242,-7.922 -4.072,0 -6.085,3.131 -6.085,6.928 0,4.304 2.516,6.797 6.851,6.797 1.831,0 3.26,-0.354 4.511,-1.041 v -2.779 c -1.278,0.719 -2.702,1.327 -4.357,1.327 -2.117,0 -3.589,-1.198 -3.745,-3.31"
       clip-path="url(#SVGID_2_)"
       id="path63" /><rect
       width="6.6890001"
       height="2.803"
       x="215.64799"
       y="79.853996"
       clip-path="url(#SVGID_2_)"
       id="rect65" /><path
       d="m 366.022,84.745 c -0.541,0.711 -1.355,1.169 -2.396,1.169 -1.223,0 -2.16,-0.482 -2.16,-1.604 0,-2.012 2.265,-2.264 3.79,-2.264 h 1.477 c 0,1.017 -0.156,1.958 -0.711,2.699 m 3.867,0.431 c -0.027,-0.97 -0.05,-1.962 -0.05,-3.283 V 80.21 c 0,-3.869 -1.66,-5.521 -5.649,-5.521 -1.459,0 -3.236,0.379 -4.561,0.992 l 0.098,2.924 c 1.147,-0.868 2.601,-1.428 4.053,-1.428 2.013,0 2.954,0.717 2.954,2.826 h -1.885 c -1.428,0 -3.111,0.134 -4.404,0.77 -1.3,0.631 -2.239,1.778 -2.239,3.742 0,2.493 2.268,3.894 4.59,3.894 1.549,0 3.252,-0.814 4.033,-2.265 h 0.056 c 0.021,0.403 0.021,1.271 0.154,1.962 h 3.011 c -0.089,-1.02 -0.137,-1.936 -0.161,-2.93"
       clip-path="url(#SVGID_2_)"
       id="path67" /><path
       d="m 351.225,88.105 h 3.418 v -10.62 h 2.979 v -2.494 h -2.979 V 73.36 c 0,-1.021 0.354,-2.01 1.498,-2.01 0.742,0 1.172,0.276 1.48,0.458 l 0.275,-2.827 c -0.66,-0.152 -1.63,-0.283 -2.495,-0.283 -2.698,0 -4.177,1.835 -4.177,4.461 v 1.832 h -2.518 v 2.494 h 2.518 v 10.62"
       clip-path="url(#SVGID_2_)"
       id="path69" /><path
       d="m 342.974,74.688 c -1.603,0 -3.307,0.733 -4.098,2.311 -0.74,-1.625 -2.036,-2.311 -3.865,-2.311 -1.276,0 -2.833,0.528 -3.895,2.133 h -0.048 v -1.83 h -3.187 v 13.114 h 3.405 v -6.368 c 0,-1.708 0.281,-4.403 2.544,-4.403 1.97,0 1.97,1.728 1.97,2.951 v 7.82 h 3.405 v -6.368 c 0,-1.708 0.288,-4.403 2.549,-4.403 1.958,0 1.958,1.728 1.958,2.951 v 7.82 h 3.415 v -8.276 c 10e-4,-2.928 -0.918,-5.141 -4.153,-5.141"
       clip-path="url(#SVGID_2_)"
       id="path71" /><path
       d="m 381.499,81.104 v 7.001 h 3.416 v -8.276 c 0,-2.955 -1.351,-5.141 -4.46,-5.141 -1.778,0 -3.255,0.812 -4.121,2.083 h -0.051 v -7.769 h -3.413 v 19.103 h 3.413 v -6.421 c 0,-1.682 0.535,-4.352 3.005,-4.352 2.19,0.001 2.211,2.167 2.211,3.772"
       clip-path="url(#SVGID_2_)"
       id="path73" /><path
       d="m 349.158,58.691 h 3.41 V 50.42 c 0,-2.933 -0.916,-5.15 -4.147,-5.15 -1.602,0 -3.309,0.742 -4.1,2.321 -0.732,-1.628 -2.041,-2.321 -3.866,-2.321 -1.278,0 -2.829,0.539 -3.9,2.145 h -0.046 v -1.837 h -3.186 v 13.113 h 3.409 v -6.365 c 0,-1.707 0.286,-4.404 2.551,-4.404 1.962,0 1.962,1.731 1.962,2.954 v 7.815 h 3.407 v -6.365 c 0,-1.707 0.285,-4.404 2.548,-4.404 1.958,0 1.958,1.731 1.958,2.954 v 7.815"
       clip-path="url(#SVGID_2_)"
       id="path75" /><path
       d="m 405.968,88.105 -0.104,-2.701 c -0.357,0.231 -0.938,0.355 -1.553,0.355 -1.297,0 -1.603,-1.046 -1.603,-2.165 v -6.109 h 3.031 v -2.494 h -3.031 v -3.719 l -3.41,1.095 v 2.624 h -2.521 v 2.494 h 2.521 v 6.674 c 0,2.593 1.477,4.25 4.146,4.25 1.026,0 1.81,-0.102 2.524,-0.304"
       clip-path="url(#SVGID_2_)"
       id="path77" /><path
       d="m 267.464,85.761 c -2.243,0 -2.886,-2.445 -2.886,-4.252 0,-1.759 0.619,-4.175 2.835,-4.175 2.185,0 3.051,2.341 3.051,4.175 0,1.859 -0.743,4.252 -3,4.252 m 3.017,-16.757 v 7.511 h -0.046 c -1.016,-1.247 -2.217,-1.825 -3.92,-1.825 -4.023,0 -5.497,3.205 -5.497,6.819 0,3.593 1.474,6.9 5.497,6.9 1.606,0 3.006,-0.507 4.023,-1.783 h 0.05 v 1.48 h 3.315 V 69.004 h -3.422 z"
       clip-path="url(#SVGID_2_)"
       id="path79" /><path
       d="m 240.218,86.325 v 1.78 h 3.231 V 74.991 h -3.413 v 6.414 c 0,1.68 -0.534,4.355 -2.998,4.355 -2.192,0 -2.219,-2.166 -2.219,-3.771 v -6.998 h -3.41 v 8.274 c 0,2.952 1.348,5.144 4.451,5.144 1.784,0 3.256,-0.815 4.306,-2.084 h 0.052"
       clip-path="url(#SVGID_2_)"
       id="path81" /><path
       d="m 241.282,49.218 c 0,-1.117 1.101,-1.451 2.013,-1.451 1.246,0 2.009,0.205 3.05,0.56 l 0.235,-2.571 c -1.069,-0.228 -2.122,-0.485 -3.713,-0.485 -2.676,0 -5.148,1.251 -5.148,4.078 0,4.732 5.931,2.977 5.931,5.551 0,1.273 -1.377,1.603 -2.235,1.603 -1.176,0 -2.297,-0.33 -3.368,-0.867 l -0.205,2.803 c 1.251,0.331 2.573,0.556 3.875,0.556 2.776,0 5.498,-1.218 5.498,-4.273 -0.001,-4.736 -5.933,-3.415 -5.933,-5.504"
       clip-path="url(#SVGID_2_)"
       id="path83" /><path
       d="m 250.048,81.685 c 0,-1.682 0.531,-4.352 3.003,-4.352 2.193,0 2.214,2.165 2.214,3.771 v 7.001 h 3.413 v -8.277 c 0,-2.955 -1.353,-5.14 -4.459,-5.14 -1.785,0 -3.236,0.578 -4.305,2.083 h -0.049 v -1.78 h -3.229 v 13.114 h 3.411 v -6.42"
       clip-path="url(#SVGID_2_)"
       id="path85" /><path
       d="m 321.461,86.325 h 0.055 v 1.78 h 3.23 V 74.991 h -3.409 v 6.414 c 0,1.68 -0.536,4.355 -3.006,4.355 -2.189,0 -2.213,-2.166 -2.213,-3.771 v -6.998 h -3.416 v 8.274 c 0,2.952 1.353,5.144 4.455,5.144 1.788,0 3.256,-0.815 4.304,-2.084"
       clip-path="url(#SVGID_2_)"
       id="path87" /><path
       d="m 306.292,84.745 c -0.537,0.711 -1.351,1.169 -2.393,1.169 -1.227,0 -2.169,-0.482 -2.169,-1.604 0,-2.012 2.27,-2.264 3.797,-2.264 h 1.472 c 0,1.017 -0.153,1.958 -0.707,2.699 m 3.866,0.431 c -0.024,-0.97 -0.055,-1.962 -0.055,-3.283 V 80.21 c 0,-3.869 -1.65,-5.521 -5.65,-5.521 -1.448,0 -3.233,0.379 -4.554,0.992 L 300,78.605 c 1.151,-0.868 2.596,-1.428 4.051,-1.428 2.006,0 2.948,0.717 2.948,2.826 h -1.882 c -1.424,0 -3.105,0.134 -4.409,0.77 -1.291,0.631 -2.238,1.778 -2.238,3.742 0,2.493 2.27,3.894 4.582,3.894 1.548,0 3.26,-0.814 4.049,-2.265 h 0.051 c 0.025,0.403 0.025,1.271 0.149,1.962 h 3.012 c -0.078,-1.02 -0.13,-1.936 -0.155,-2.93"
       clip-path="url(#SVGID_2_)"
       id="path89" /><path
       d="m 288.825,77.919 h -1.175 v -4.787 h 1.175 c 1.782,0 3.77,0.178 3.77,2.318 0,2.214 -2.022,2.469 -3.77,2.469 m 5.7,3.234 c -0.363,-0.789 -0.919,-1.757 -1.889,-1.834 v -0.051 c 2.272,-0.306 3.665,-2.037 3.665,-4.128 0,-4.937 -4.549,-4.813 -8.368,-4.813 h -3.847 v 17.777 h 3.563 v -7.385 h 1.143 c 1.504,0 1.964,0.509 2.476,1.831 l 2.134,5.554 h 3.974 l -2.851,-6.951 z"
       clip-path="url(#SVGID_2_)"
       id="path91" /><path
       d="m 275.963,47.767 c 1.907,0 2.669,1.424 2.77,3.082 h -5.804 c 0.153,-1.754 1.121,-3.082 3.034,-3.082 m -3.034,5.425 h 9.064 c 0,-4.586 -1.372,-7.922 -6.238,-7.922 -4.073,0 -6.089,3.131 -6.089,6.928 0,4.304 2.526,6.797 6.857,6.797 1.829,0 3.252,-0.354 4.507,-1.041 v -2.779 c -1.282,0.719 -2.704,1.327 -4.356,1.327 -2.113,0 -3.592,-1.198 -3.745,-3.31"
       clip-path="url(#SVGID_2_)"
       id="path93" /></g></svg>