<?xml version="1.0" encoding="UTF-8" standalone="no"?>
<!-- Created with Inkscape (http://www.inkscape.org/) -->

<svg
   xmlns:dc="http://purl.org/dc/elements/1.1/"
   xmlns:cc="http://creativecommons.org/ns#"
   xmlns:rdf="http://www.w3.org/1999/02/22-rdf-syntax-ns#"
   xmlns:svg="http://www.w3.org/2000/svg"
   xmlns="http://www.w3.org/2000/svg"
   xmlns:xlink="http://www.w3.org/1999/xlink"
   version="1.1"
   width="107"
   height="88.153999"
   viewBox="0 0 107 88.154002"
   id="Ebene_1"
   xml:space="preserve"><metadata
     id="metadata141"><rdf:RDF><cc:Work
         rdf:about=""><dc:format>image/svg+xml</dc:format><dc:type
           rdf:resource="http://purl.org/dc/dcmitype/StillImage" /><dc:title></dc:title></cc:Work></rdf:RDF></metadata><defs
     id="defs139"><defs
       id="defs7"><rect
         width="405.96799"
         height="122.326"
         x="0"
         y="0"
         id="SVGID_1_" /></defs><clipPath
       id="SVGID_2_"><use
         id="use11"
         style="overflow:visible"
         x="0"
         y="0"
         width="405.96799"
         height="122.326"
         xlink:href="#SVGID_1_" /></clipPath></defs><g
     transform="translate(-1.166743e-7,-0.001)"
     id="g3184"
     style="fill:#ffffff;fill-opacity:1"><path
       d="M 35.208,52.901 H 50.066 L 35.208,67.792 V 52.901 z M 26.198,35.133 H 42.689 L 30.921,46.907 H 14.437 L 26.198,35.133 z m 24.979,0 h 16.68 L 56.093,46.907 H 39.417 l 11.76,-11.774 z m 25.135,0 H 92.563 L 80.795,46.907 H 64.552 L 76.312,35.133 z M 71.85,14.463 V 29.146 H 57.167 L 71.85,14.463 z M 77.823,0.001 48.738,29.128 H 23.778 L 0,52.909 29.278,52.911 V 82.117 L 58.496,52.903 H 83.237 L 107,29.128 H 77.824 l -0.001,-29.127 0,0 z"
       id="path3"
       style="fill:#ffffff;fill-opacity:1" /><path
       d="m 64.143,85.356 h -1.981 v -12.16 h 1.981 c 2.976,0 5.852,2.214 5.852,6.08 0,3.868 -2.876,6.08 -5.852,6.08 m -0.686,-14.96 h -4.858 v 17.759 h 4.858 c 5.443,0 10.253,-1.832 10.253,-8.879 0,-7.045 -4.81,-8.88 -10.253,-8.88"
       clip-path="url(#SVGID_2_)"
       id="path13"
       style="fill:#ffffff;fill-opacity:1" /><polygon
       points="87.938,85.356 87.938,88.155 77.481,88.155 77.481,70.396 81.044,70.396 81.044,85.356 "
       clip-path="url(#SVGID_2_)"
       id="polygon15"
       style="fill:#ffffff;fill-opacity:1" /><path
       d="m 95.865,77.979 h -1.172 v -4.783 h 1.172 c 1.778,0 3.764,0.18 3.764,2.316 0,2.213 -2.011,2.467 -3.764,2.467 m 5.697,3.23 c -0.355,-0.786 -0.916,-1.755 -1.884,-1.831 v -0.051 c 2.264,-0.304 3.666,-2.035 3.666,-4.121 0,-4.936 -4.557,-4.81 -8.374,-4.81 h -3.841 v 17.759 h 3.564 v -7.376 h 1.144 c 1.499,0 1.957,0.507 2.468,1.829 l 2.137,5.547 h 3.968 l -2.848,-6.946 z"
       clip-path="url(#SVGID_2_)"
       id="path17"
       style="fill:#ffffff;fill-opacity:1" /></g></svg>